<svg width="32" height="32" viewBox="0 0 32 32" fill="none" xmlns="http://www.w3.org/2000/svg">
<rect width="32" height="32" fill="white"/>
<path d="M7 28.5265V32H28.5458V5.09627C28.5455 4.85928 28.5668 4.62452 28.6083 4.40547C28.6498 4.18642 28.7107 3.98739 28.7876 3.81982C28.8645 3.65224 28.9558 3.51941 29.0563 3.42896C29.1568 3.33851 29.2645 3.29221 29.3733 3.29273H31.2915L32 0H28.5458C28.0711 0.00104022 27.616 0.412453 27.2804 1.14395C26.9448 1.87545 26.756 2.86727 26.7555 3.90177V4.42436C19.8092 4.42436 15.7149 7.80354 15.7149 11.9686H19.171L18.9673 12.5069H16.5641C16.3149 12.5066 16.0705 12.6571 15.8582 12.9415C15.6459 13.2259 15.474 13.6332 15.3616 14.1179L13.4452 22.3694L8.23495 25.1198C7.88463 25.3077 7.57302 25.7446 7.34937 26.3615C7.12572 26.9785 7.00279 27.7403 7 28.5265ZM20.2112 14.3811H21.5814C21.7094 14.3822 21.832 14.4934 21.9225 14.6907C22.013 14.888 22.0641 15.1552 22.0645 15.4342V20.6051C22.0648 20.7435 22.0525 20.8807 22.0283 21.0087C22.0041 21.1367 21.9685 21.253 21.9236 21.3509C21.8787 21.4488 21.8253 21.5263 21.7666 21.5791C21.7078 21.6318 21.6449 21.6587 21.5814 21.6582H20.2112V14.3811ZM14.5467 21.6503C14.9073 20.0786 15.4878 17.6503 15.8718 16.0275C15.9903 15.5284 16.1696 15.11 16.3899 14.8182C16.6103 14.5264 16.8633 14.3725 17.1212 14.3733H19.6938V21.6503H14.5467Z" fill="#001C34"/>
</svg>
